<svg width="18" height="22" viewBox="0 0 18 22" fill="none" xmlns="http://www.w3.org/2000/svg">
<path d="M5.33387 10.1344C5.61679 10.1344 5.88813 10.022 6.08819 9.82196C6.28825 9.6219 6.40065 9.35056 6.40065 9.06763C6.40065 8.78471 6.28825 8.51337 6.08819 8.31331C5.88813 8.11325 5.61679 8.00085 5.33387 8.00085C5.05094 8.00085 4.7796 8.11325 4.57954 8.31331C4.37948 8.51337 4.26709 8.78471 4.26709 9.06763C4.26709 9.35056 4.37948 9.6219 4.57954 9.82196C4.7796 10.022 5.05094 10.1344 5.33387 10.1344ZM7.46742 9.06763C7.46742 8.78471 7.57982 8.51337 7.77988 8.31331C7.97994 8.11325 8.25127 8.00085 8.5342 8.00085H11.7345C12.0175 8.00085 12.2888 8.11325 12.4889 8.31331C12.6889 8.51337 12.8013 8.78471 12.8013 9.06763C12.8013 9.35056 12.6889 9.6219 12.4889 9.82196C12.2888 10.022 12.0175 10.1344 11.7345 10.1344H8.5342C8.25127 10.1344 7.97994 10.022 7.77988 9.82196C7.57982 9.6219 7.46742 9.35056 7.46742 9.06763ZM8.5342 11.2012C8.25127 11.2012 7.97994 11.3136 7.77988 11.5136C7.57982 11.7137 7.46742 11.985 7.46742 12.268C7.46742 12.5509 7.57982 12.8222 7.77988 13.0223C7.97994 13.2224 8.25127 13.3347 8.5342 13.3347H11.7345C12.0175 13.3347 12.2888 13.2224 12.4889 13.0223C12.6889 12.8222 12.8013 12.5509 12.8013 12.268C12.8013 11.985 12.6889 11.7137 12.4889 11.5136C12.2888 11.3136 12.0175 11.2012 11.7345 11.2012H8.5342ZM8.5342 14.4015C8.25127 14.4015 7.97994 14.5139 7.77988 14.714C7.57982 14.914 7.46742 15.1854 7.46742 15.4683C7.46742 15.7512 7.57982 16.0226 7.77988 16.2226C7.97994 16.4227 8.25127 16.5351 8.5342 16.5351H11.7345C12.0175 16.5351 12.2888 16.4227 12.4889 16.2226C12.6889 16.0226 12.8013 15.7512 12.8013 15.4683C12.8013 15.1854 12.6889 14.914 12.4889 14.714C12.2888 14.5139 12.0175 14.4015 11.7345 14.4015H8.5342ZM6.40065 12.268C6.40065 12.5509 6.28825 12.8222 6.08819 13.0223C5.88813 13.2224 5.61679 13.3347 5.33387 13.3347C5.05094 13.3347 4.7796 13.2224 4.57954 13.0223C4.37948 12.8222 4.26709 12.5509 4.26709 12.268C4.26709 11.985 4.37948 11.7137 4.57954 11.5136C4.7796 11.3136 5.05094 11.2012 5.33387 11.2012C5.61679 11.2012 5.88813 11.3136 6.08819 11.5136C6.28825 11.7137 6.40065 11.985 6.40065 12.268ZM5.33387 16.5351C5.61679 16.5351 5.88813 16.4227 6.08819 16.2226C6.28825 16.0226 6.40065 15.7512 6.40065 15.4683C6.40065 15.1854 6.28825 14.914 6.08819 14.714C5.88813 14.5139 5.61679 14.4015 5.33387 14.4015C5.05094 14.4015 4.7796 14.5139 4.57954 14.714C4.37948 14.914 4.26709 15.1854 4.26709 15.4683C4.26709 15.7512 4.37948 16.0226 4.57954 16.2226C4.7796 16.4227 5.05094 16.5351 5.33387 16.5351Z" fill="white"/>
<path d="M5.33389 0C5.05096 0 4.77962 0.112392 4.57956 0.312452C4.3795 0.512512 4.26711 0.783851 4.26711 1.06678H2.13356C1.5677 1.06678 1.02502 1.29156 0.624904 1.69168C0.224785 2.0918 0 2.63448 0 3.20033V19.202C0 19.7679 0.224785 20.3105 0.624904 20.7107C1.02502 21.1108 1.5677 21.3356 2.13356 21.3356H14.9349C15.5007 21.3356 16.0434 21.1108 16.4435 20.7107C16.8437 20.3105 17.0684 19.7679 17.0684 19.202V3.20033C17.0684 2.63448 16.8437 2.0918 16.4435 1.69168C16.0434 1.29156 15.5007 1.06678 14.9349 1.06678H12.8013C12.8013 0.783851 12.6889 0.512512 12.4889 0.312452C12.2888 0.112392 12.0175 0 11.7346 0H5.33389ZM12.8013 3.20033H14.9349V19.202H2.13356V3.20033H4.26711V4.26711C4.26711 4.55004 4.3795 4.82138 4.57956 5.02144C4.77962 5.2215 5.05096 5.33389 5.33389 5.33389H11.7346C12.0175 5.33389 12.2888 5.2215 12.4889 5.02144C12.6889 4.82138 12.8013 4.55004 12.8013 4.26711V3.20033ZM6.40067 3.20033V2.13356H10.6678V3.20033H6.40067Z" fill="white"/>
</svg>
