<svg width="18" height="22" viewBox="0 0 18 22" fill="none" xmlns="http://www.w3.org/2000/svg">
<path d="M5.3324 10.1345C5.61533 10.1345 5.88667 10.0221 6.08673 9.82208C6.28679 9.62202 6.39918 9.35068 6.39918 9.06775C6.39918 8.78483 6.28679 8.51349 6.08673 8.31343C5.88667 8.11337 5.61533 8.00098 5.3324 8.00098C5.04948 8.00098 4.77814 8.11337 4.57808 8.31343C4.37802 8.51349 4.26562 8.78483 4.26562 9.06775C4.26562 9.35068 4.37802 9.62202 4.57808 9.82208C4.77814 10.0221 5.04948 10.1345 5.3324 10.1345ZM7.46596 9.06775C7.46596 8.78483 7.57835 8.51349 7.77841 8.31343C7.97847 8.11337 8.24981 8.00098 8.53274 8.00098H11.7331C12.016 8.00098 12.2873 8.11337 12.4874 8.31343C12.6875 8.51349 12.7998 8.78483 12.7998 9.06775C12.7998 9.35068 12.6875 9.62202 12.4874 9.82208C12.2873 10.0221 12.016 10.1345 11.7331 10.1345H8.53274C8.24981 10.1345 7.97847 10.0221 7.77841 9.82208C7.57835 9.62202 7.46596 9.35068 7.46596 9.06775ZM8.53274 11.2013C8.24981 11.2013 7.97847 11.3137 7.77841 11.5138C7.57835 11.7138 7.46596 11.9852 7.46596 12.2681C7.46596 12.551 7.57835 12.8224 7.77841 13.0224C7.97847 13.2225 8.24981 13.3349 8.53274 13.3349H11.7331C12.016 13.3349 12.2873 13.2225 12.4874 13.0224C12.6875 12.8224 12.7998 12.551 12.7998 12.2681C12.7998 11.9852 12.6875 11.7138 12.4874 11.5138C12.2873 11.3137 12.016 11.2013 11.7331 11.2013H8.53274ZM8.53274 14.4016C8.24981 14.4016 7.97847 14.514 7.77841 14.7141C7.57835 14.9142 7.46596 15.1855 7.46596 15.4684C7.46596 15.7513 7.57835 16.0227 7.77841 16.2227C7.97847 16.4228 8.24981 16.5352 8.53274 16.5352H11.7331C12.016 16.5352 12.2873 16.4228 12.4874 16.2227C12.6875 16.0227 12.7998 15.7513 12.7998 15.4684C12.7998 15.1855 12.6875 14.9142 12.4874 14.7141C12.2873 14.514 12.016 14.4016 11.7331 14.4016H8.53274ZM6.39918 12.2681C6.39918 12.551 6.28679 12.8224 6.08673 13.0224C5.88667 13.2225 5.61533 13.3349 5.3324 13.3349C5.04948 13.3349 4.77814 13.2225 4.57808 13.0224C4.37802 12.8224 4.26562 12.551 4.26562 12.2681C4.26562 11.9852 4.37802 11.7138 4.57808 11.5138C4.77814 11.3137 5.04948 11.2013 5.3324 11.2013C5.61533 11.2013 5.88667 11.3137 6.08673 11.5138C6.28679 11.7138 6.39918 11.9852 6.39918 12.2681ZM5.3324 16.5352C5.61533 16.5352 5.88667 16.4228 6.08673 16.2227C6.28679 16.0227 6.39918 15.7513 6.39918 15.4684C6.39918 15.1855 6.28679 14.9142 6.08673 14.7141C5.88667 14.514 5.61533 14.4016 5.3324 14.4016C5.04948 14.4016 4.77814 14.514 4.57808 14.7141C4.37802 14.9142 4.26562 15.1855 4.26562 15.4684C4.26562 15.7513 4.37802 16.0227 4.57808 16.2227C4.77814 16.4228 5.04948 16.5352 5.3324 16.5352Z" fill="#EF3340"/>
<path d="M5.33389 0C5.05096 0 4.77962 0.112392 4.57956 0.312452C4.3795 0.512512 4.26711 0.783851 4.26711 1.06678H2.13356C1.5677 1.06678 1.02502 1.29156 0.624904 1.69168C0.224785 2.0918 0 2.63448 0 3.20033V19.202C0 19.7679 0.224785 20.3105 0.624904 20.7107C1.02502 21.1108 1.5677 21.3356 2.13356 21.3356H14.9349C15.5007 21.3356 16.0434 21.1108 16.4435 20.7107C16.8437 20.3105 17.0684 19.7679 17.0684 19.202V3.20033C17.0684 2.63448 16.8437 2.0918 16.4435 1.69168C16.0434 1.29156 15.5007 1.06678 14.9349 1.06678H12.8013C12.8013 0.783851 12.6889 0.512512 12.4889 0.312452C12.2888 0.112392 12.0175 0 11.7346 0H5.33389ZM12.8013 3.20033H14.9349V19.202H2.13356V3.20033H4.26711V4.26711C4.26711 4.55004 4.3795 4.82138 4.57956 5.02144C4.77962 5.2215 5.05096 5.33389 5.33389 5.33389H11.7346C12.0175 5.33389 12.2888 5.2215 12.4889 5.02144C12.6889 4.82138 12.8013 4.55004 12.8013 4.26711V3.20033ZM6.40067 3.20033V2.13356H10.6678V3.20033H6.40067Z" fill="#EF3340"/>
</svg>
